<svg version="1.1" id="Layer_1" xmlns="http://www.w3.org/2000/svg" xmlns:xlink="http://www.w3.org/1999/xlink" x="0px" y="0px"
	 width="100%" viewBox="0 0 500 500" enable-background="new 0 0 500 500" xml:space="preserve">
<path fill="#F2F2F2" opacity="1.000000" stroke="none" 
	d="
M347.000000,501.000000 
	C231.333359,501.000000 116.166725,501.000000 1.000062,501.000000 
	C1.000041,334.333405 1.000041,167.666794 1.000021,1.000151 
	C167.666550,1.000101 334.333099,1.000101 500.999756,1.000050 
	C500.999817,167.666519 500.999817,334.333038 500.999908,500.999786 
	C449.833344,501.000000 398.666656,501.000000 347.000000,501.000000 
M161.909332,272.700317 
	C151.935425,275.819641 141.961517,278.938965 131.050980,282.018158 
	C128.562210,282.132660 126.073509,282.344727 123.584648,282.346710 
	C94.647484,282.370056 65.710289,282.361694 36.773102,282.361725 
	C34.987877,282.361725 33.202648,282.361725 31.240461,282.361725 
	C31.240461,289.141968 31.240461,295.374969 31.240461,302.216827 
	C50.051376,302.216827 68.629959,302.216827 86.864349,302.790436 
	C84.857620,304.770447 82.601158,306.557281 80.891647,308.767212 
	C76.033554,315.047333 77.371704,321.074310 84.364769,324.926208 
	C86.089073,325.875977 87.992393,326.585205 89.894310,327.114044 
	C100.534210,330.072388 111.320946,329.586060 122.060036,327.969635 
	C144.920624,324.528687 166.034500,316.738892 185.228561,302.119476 
	C212.986191,302.151764 240.743835,302.184052 268.168549,302.823181 
	C257.726593,315.800385 247.129211,328.657196 236.931625,341.823669 
	C233.614227,346.106903 230.745346,350.959106 228.725952,355.975616 
	C225.470703,364.062134 228.571335,370.963531 237.003784,373.204712 
	C244.134521,375.099976 251.768005,376.155701 259.128845,375.932190 
	C279.603333,375.310455 300.042694,373.613861 320.513367,372.760437 
	C335.164337,372.149628 349.870087,372.016571 363.906616,377.450470 
	C366.337677,378.391571 368.877197,379.589844 370.151672,376.194244 
	C371.420074,372.814819 368.654053,371.584534 366.264526,371.054871 
	C357.860840,369.192078 349.387177,366.231018 340.943054,366.240906 
	C319.145691,366.266449 297.355103,367.856018 275.551422,368.418182 
	C264.430939,368.704926 253.239914,368.688293 242.172302,367.740295 
	C234.778152,367.106934 232.792648,362.651215 236.179855,356.040222 
	C238.588196,351.339752 241.639694,346.887634 244.916336,342.728149 
	C255.631653,329.125763 266.581451,315.708130 278.316833,302.108307 
	C343.737976,302.108307 409.159149,302.108307 474.770264,302.108307 
	C474.770264,295.335693 474.770264,289.097351 474.770264,282.361694 
	C472.575653,282.361694 470.615662,282.361694 468.655640,282.361694 
	C412.845856,282.361694 357.036072,282.364929 301.226288,282.349518 
	C299.069153,282.348938 296.912048,282.169525 295.059418,281.443817 
	C297.620117,278.296997 300.180817,275.150177 303.658447,271.640106 
	C315.130432,271.641724 326.602448,271.643311 338.953552,271.960297 
	C345.541473,271.960297 352.129395,271.960297 358.079773,271.960297 
	C359.135315,270.153748 359.883698,268.872925 361.179108,266.655823 
	C361.978546,269.295380 362.379089,270.617920 362.752228,271.849945 
	C369.672119,271.849945 376.277557,271.849945 383.603973,271.936401 
	C384.082733,271.941040 384.561493,271.945679 385.971100,271.999176 
	C392.233795,271.999176 398.496521,271.999176 404.706177,271.999176 
	C404.976074,269.326874 405.191864,267.190216 405.407654,265.053528 
	C405.757904,265.043640 406.108124,265.033752 406.458344,265.023865 
	C406.969543,267.292145 407.480713,269.560394 407.959595,271.685333 
	C415.446381,271.685333 422.653015,271.685333 430.822205,271.685333 
	C424.047729,255.193558 424.336670,238.977692 430.615967,222.335785 
	C424.699280,222.335785 419.903534,222.335724 415.107819,222.335800 
	C407.392151,222.335922 407.392151,222.335953 406.371094,230.133453 
	C405.982422,230.037354 405.593719,229.941254 405.232452,228.952332 
	C405.232452,226.870743 405.232452,224.789139 405.232452,222.719696 
	C397.837402,222.719696 391.101959,222.719696 384.088104,222.719696 
	C384.088104,238.736008 384.088104,254.369751 383.549042,270.160980 
	C383.371124,270.102753 383.193207,270.044525 382.899933,269.203522 
	C379.163910,253.631683 375.427917,238.059830 371.655914,222.337997 
	C364.878174,222.337997 358.575348,222.203430 352.288574,222.461166 
	C351.148010,222.507950 349.348297,223.985168 349.078033,225.099197 
	C345.604370,239.419174 342.353363,253.793137 338.103058,268.122192 
	C337.741486,265.090729 337.379913,262.059235 336.956024,258.505310 
	C333.323761,258.505310 329.797882,258.505310 326.221863,258.505310 
	C326.221863,256.188995 326.221863,254.421600 326.221863,252.546890 
	C329.194824,252.386185 331.943451,252.237625 334.714844,252.087814 
	C334.714844,248.830521 334.714844,245.918732 334.714844,242.864410 
	C332.557251,242.626038 330.615387,242.411499 329.072083,241.606918 
	C330.520416,239.850433 331.968750,238.093933 334.220612,236.235626 
	C337.873474,236.665741 336.935760,233.814255 337.810242,231.529144 
	C343.431458,225.071960 349.052673,218.614777 355.643463,212.019562 
	C395.372650,212.019562 435.101837,212.019562 474.611389,212.019562 
	C474.611389,204.884720 474.611389,198.487503 474.611389,192.000763 
	C470.059662,192.000763 465.896698,192.007278 461.733734,191.999725 
	C432.419312,191.946472 403.104858,191.890305 374.033325,191.208496 
	C381.369263,184.356674 388.705200,177.504852 395.400085,171.251801 
	C396.046753,172.445435 397.086639,174.364899 398.126526,176.284363 
	C400.006866,174.750885 402.231140,173.483002 403.675232,171.612717 
	C405.265930,169.552582 406.283875,166.998093 407.288300,164.551025 
	C408.464600,161.685242 410.287354,158.523544 407.174805,155.858154 
	C403.945068,153.092484 401.303284,155.737885 398.732208,157.426163 
	C397.211792,158.424576 395.734955,159.560135 394.462646,160.854340 
	C384.339905,171.151413 374.270905,181.501282 363.234039,191.976044 
	C299.442047,191.984283 235.650040,191.994934 171.858047,191.993622 
	C168.695953,191.993561 165.533844,191.889603 162.110687,191.199432 
	C157.531601,186.136902 152.767380,181.228012 148.411880,175.979919 
	C139.301361,165.002396 139.971390,154.067719 151.048431,145.063507 
	C156.906265,140.301849 163.588058,136.145157 170.526352,133.191925 
	C201.036850,120.205421 233.166718,115.781097 266.123718,116.668724 
	C277.462921,116.974121 288.757050,118.047050 299.222626,122.952332 
	C308.006317,127.069283 309.312775,131.352341 305.416687,140.068192 
	C304.728455,141.607880 305.607666,143.848251 305.763031,145.765045 
	C307.638763,144.971375 310.321655,144.712845 311.259888,143.297638 
	C317.588104,133.752518 314.975128,123.703835 304.796021,117.933495 
	C295.152466,112.466751 284.416473,110.881355 273.602783,110.059761 
	C245.953308,107.959038 218.746552,110.969559 192.025726,118.134659 
	C175.907944,122.456581 160.229523,128.006134 147.142700,138.929474 
	C133.054260,150.688843 131.429733,165.821503 142.727707,180.216919 
	C145.899536,184.258316 149.490311,187.970901 151.970352,191.936172 
	C111.736702,191.936172 71.503052,191.936172 31.368521,191.936172 
	C31.368521,199.039368 31.368521,205.432602 31.368521,211.999237 
	C39.038738,211.999237 46.356510,211.991272 53.674259,212.000565 
	C93.145569,212.050690 132.616867,212.105072 172.327362,212.757019 
	C174.974197,215.863632 177.621033,218.970261 179.313171,222.272644 
	C170.254211,222.272644 161.195267,222.272644 152.000626,222.272644 
	C152.000626,239.166885 152.000626,255.342896 152.000626,272.168060 
	C155.635269,272.168060 159.073166,272.168060 161.909332,272.700317 
M138.539459,272.004944 
	C142.319565,272.004944 146.099670,272.004944 150.270584,272.004944 
	C149.161255,266.735138 148.104614,262.044373 147.218414,257.321655 
	C146.921432,255.738953 146.351120,253.520462 147.117630,252.541382 
	C150.922455,247.681488 150.103485,242.127640 150.007263,236.710983 
	C149.873962,229.206726 146.416672,224.333191 139.037476,223.496887 
	C128.877136,222.345398 118.579178,222.408325 108.243607,221.946686 
	C108.243607,239.183762 108.243607,255.417526 108.243607,271.727692 
	C114.913689,271.727692 121.310997,271.727692 128.131744,271.727692 
	C128.131744,266.753296 128.131744,262.046326 128.131744,257.339325 
	C128.542816,257.315033 128.953903,257.290741 129.364975,257.266449 
	C129.694366,262.060547 130.023743,266.854614 130.377609,272.004944 
	C132.975250,272.004944 135.272980,272.004944 138.539459,272.004944 
M435.115845,268.378204 
	C444.292969,274.818085 454.177979,274.490082 464.141632,270.952759 
	C469.387756,269.090240 471.792358,264.631531 471.793427,259.166687 
	C471.794952,251.390945 468.756165,245.286331 461.344543,241.923157 
	C459.038330,240.876678 456.721130,239.854431 454.408936,238.821091 
	C454.489288,238.517883 454.569611,238.214691 454.649933,237.911499 
	C460.042603,237.911499 465.435272,237.911499 470.803467,237.911499 
	C471.043549,229.006088 467.266266,223.568726 459.046112,222.238632 
	C453.887390,221.403900 448.425568,221.432114 443.228058,222.088791 
	C435.822784,223.024414 432.257050,227.440109 431.599213,234.854263 
	C430.956757,242.095596 433.918152,247.130615 441.091736,250.847153 
	C443.587128,252.139984 446.150452,253.301727 448.682770,254.523346 
	C448.569519,254.915497 448.456299,255.307632 448.343048,255.699783 
	C442.757996,255.699783 437.172974,255.699783 429.958801,255.699783 
	C431.758575,260.398712 433.182739,264.116882 435.115845,268.378204 
M59.125938,241.283493 
	C57.225342,240.490921 55.324749,239.698334 53.424152,238.905746 
	C53.490421,238.605194 53.556694,238.304626 53.622963,238.004074 
	C58.990791,238.004074 64.358620,238.004074 69.686790,238.004074 
	C70.176796,229.692581 67.433647,224.652298 60.024128,222.971939 
	C54.340508,221.682983 48.173016,221.519058 42.348354,222.110916 
	C34.738029,222.884186 31.068808,227.606064 30.550571,235.229599 
	C30.048178,242.620071 33.612251,247.579163 39.978886,250.802643 
	C42.532990,252.095810 45.141323,253.281860 47.724976,254.516678 
	C47.624531,254.882187 47.524086,255.247696 47.423641,255.613205 
	C41.832993,255.613205 36.242348,255.613205 30.723923,255.613205 
	C29.695644,264.352417 32.612747,269.765015 40.318493,271.667023 
	C45.385265,272.917664 50.888737,273.254639 56.109722,272.857635 
	C69.489105,271.840210 75.404373,259.246307 67.738464,248.176117 
	C65.861221,245.465210 62.465015,243.806168 59.125938,241.283493 
M71.908806,224.812531 
	C71.908806,228.926025 71.908806,233.039536 71.908806,237.312576 
	C74.328674,237.559341 76.254112,237.755676 78.760300,238.011230 
	C78.760300,249.430405 78.760300,260.616028 78.760300,271.666748 
	C86.117821,271.666748 92.855484,271.666748 99.962044,271.666748 
	C99.962044,260.227478 99.962044,249.128143 99.962044,237.926819 
	C102.248375,237.696411 104.167953,237.502960 106.241539,237.293991 
	C106.241539,232.240433 106.241539,227.514725 106.241539,222.377502 
	C95.145378,222.377502 84.366257,222.355301 73.587990,222.441650 
	C73.035934,222.446060 72.491325,223.382126 71.908806,224.812531 
z"/>
<path fill="#FF1616" opacity="1.000000" stroke="none" 
	d="
M172.088181,212.157974 
	C132.616867,212.105072 93.145569,212.050690 53.674259,212.000565 
	C46.356510,211.991272 39.038738,211.999237 31.368521,211.999237 
	C31.368521,205.432602 31.368521,199.039368 31.368521,191.936172 
	C71.503052,191.936172 111.736702,191.936172 152.895737,191.952087 
	C156.671326,191.923340 159.521545,191.878677 162.371750,191.834015 
	C165.533844,191.889603 168.695953,191.993561 171.858047,191.993622 
	C235.650040,191.994934 299.442047,191.984283 364.144348,191.953888 
	C367.966553,191.899506 370.878510,191.867279 373.790436,191.835083 
	C403.104858,191.890305 432.419312,191.946472 461.733734,191.999725 
	C465.896698,192.007278 470.059662,192.000763 474.611389,192.000763 
	C474.611389,198.487503 474.611389,204.884720 474.611389,212.019562 
	C435.101837,212.019562 395.372650,212.019562 354.738342,212.039536 
	C351.002106,212.091202 348.170990,212.122879 344.851410,212.085403 
	C315.549438,212.009552 286.735870,211.980942 257.922363,212.002731 
	C232.442719,212.022003 206.963089,212.097427 181.067184,212.090988 
	C177.796661,212.075272 174.942429,212.116623 172.088181,212.157974 
z"/>
<path fill="#FE1A1A" opacity="1.000000" stroke="none" 
	d="
M268.501465,302.216309 
	C240.743835,302.184052 212.986191,302.151764 184.307648,302.090302 
	C179.630417,302.111694 175.874100,302.162262 171.643127,302.153931 
	C147.642670,302.135803 124.116829,302.176605 100.155884,302.164001 
	C95.550034,302.145996 91.379295,302.181427 87.208549,302.216827 
	C68.629959,302.216827 50.051376,302.216827 31.240461,302.216827 
	C31.240461,295.374969 31.240461,289.141968 31.240461,282.361725 
	C33.202648,282.361725 34.987877,282.361725 36.773102,282.361725 
	C65.710289,282.361694 94.647484,282.370056 123.584648,282.346710 
	C126.073509,282.344727 128.562210,282.132660 131.994690,282.025818 
	C140.451263,282.034485 147.964157,282.035492 155.985703,282.055847 
	C169.561691,282.071869 182.629028,282.068542 196.143112,282.173828 
	C199.244095,282.214081 201.898315,282.145721 205.037109,282.197815 
	C216.987366,282.336212 228.453232,282.400635 239.918701,282.360687 
	C255.200272,282.307404 270.481567,282.172913 286.211365,282.175629 
	C289.358185,282.209778 292.056549,282.141602 294.754944,282.073456 
	C296.912048,282.169525 299.069153,282.348938 301.226288,282.349518 
	C357.036072,282.364929 412.845856,282.361694 468.655640,282.361694 
	C470.615662,282.361694 472.575653,282.361694 474.770264,282.361694 
	C474.770264,289.097351 474.770264,295.335693 474.770264,302.108307 
	C409.159149,302.108307 343.737976,302.108307 277.421448,302.081299 
	C273.851166,302.108276 271.176331,302.162292 268.501465,302.216309 
z"/>
<path fill="#FF1919" opacity="1.000000" stroke="none" 
	d="
M384.088104,270.003510 
	C384.088104,254.369751 384.088104,238.736008 384.088104,222.719696 
	C391.101959,222.719696 397.837402,222.719696 405.232452,222.719696 
	C405.232452,224.789139 405.232452,226.870743 405.087891,229.849350 
	C404.943329,233.945358 404.943329,237.144348 404.943329,240.343353 
	C405.344788,240.368317 405.746246,240.393280 406.147705,240.418243 
	C406.413177,236.929123 406.678650,233.440018 406.944122,229.950897 
	C407.392151,222.335953 407.392151,222.335922 415.107819,222.335800 
	C419.903534,222.335724 424.699280,222.335785 430.615967,222.335785 
	C424.336670,238.977692 424.047729,255.193558 430.822205,271.685333 
	C422.653015,271.685333 415.446381,271.685333 407.959595,271.685333 
	C407.480713,269.560394 406.969543,267.292145 406.458344,265.023865 
	C406.108124,265.033752 405.757904,265.043640 405.407654,265.053528 
	C405.191864,267.190216 404.976074,269.326874 404.706177,271.999176 
	C398.496521,271.999176 392.233795,271.999176 385.373474,271.733154 
	C384.546600,270.979248 384.317352,270.491364 384.088104,270.003510 
z"/>
<path fill="#FF1919" opacity="1.000000" stroke="none" 
	d="
M138.055084,272.004944 
	C135.272980,272.004944 132.975250,272.004944 130.377609,272.004944 
	C130.023743,266.854614 129.694366,262.060547 129.364975,257.266449 
	C128.953903,257.290741 128.542816,257.315033 128.131744,257.339325 
	C128.131744,262.046326 128.131744,266.753296 128.131744,271.727692 
	C121.310997,271.727692 114.913689,271.727692 108.243607,271.727692 
	C108.243607,255.417526 108.243607,239.183762 108.243607,221.946686 
	C118.579178,222.408325 128.877136,222.345398 139.037476,223.496887 
	C146.416672,224.333191 149.873962,229.206726 150.007263,236.710983 
	C150.103485,242.127640 150.922455,247.681488 147.117630,252.541382 
	C146.351120,253.520462 146.921432,255.738953 147.218414,257.321655 
	C148.104614,262.044373 149.161255,266.735138 150.270584,272.004944 
	C146.099670,272.004944 142.319565,272.004944 138.055084,272.004944 
z"/>
<path fill="#090909" opacity="1.000000" stroke="none" 
	d="
M162.241211,191.516724 
	C159.521545,191.878677 156.671326,191.923340 153.355011,191.901154 
	C149.490311,187.970901 145.899536,184.258316 142.727707,180.216919 
	C131.429733,165.821503 133.054260,150.688843 147.142700,138.929474 
	C160.229523,128.006134 175.907944,122.456581 192.025726,118.134659 
	C218.746552,110.969559 245.953308,107.959038 273.602783,110.059761 
	C284.416473,110.881355 295.152466,112.466751 304.796021,117.933495 
	C314.975128,123.703835 317.588104,133.752518 311.259888,143.297638 
	C310.321655,144.712845 307.638763,144.971375 305.763062,145.765045 
	C305.607666,143.848251 304.728455,141.607880 305.416687,140.068192 
	C309.312775,131.352341 308.006317,127.069283 299.222626,122.952332 
	C288.757050,118.047050 277.462921,116.974121 266.123718,116.668724 
	C233.166718,115.781097 201.036850,120.205421 170.526352,133.191925 
	C163.588058,136.145157 156.906265,140.301849 151.048431,145.063507 
	C139.971390,154.067719 139.301361,165.002396 148.411880,175.979919 
	C152.767380,181.228012 157.531601,186.136902 162.241211,191.516724 
z"/>
<path fill="#FF1A1A" opacity="1.000000" stroke="none" 
	d="
M434.861359,268.106628 
	C433.182739,264.116882 431.758575,260.398712 429.958801,255.699783 
	C437.172974,255.699783 442.757996,255.699783 448.343048,255.699783 
	C448.456299,255.307632 448.569519,254.915497 448.682770,254.523346 
	C446.150452,253.301727 443.587128,252.139984 441.091736,250.847153 
	C433.918152,247.130615 430.956757,242.095596 431.599213,234.854263 
	C432.257050,227.440109 435.822784,223.024414 443.228058,222.088791 
	C448.425568,221.432114 453.887390,221.403900 459.046112,222.238632 
	C467.266266,223.568726 471.043549,229.006088 470.803467,237.911499 
	C465.435272,237.911499 460.042603,237.911499 454.649933,237.911499 
	C454.569611,238.214691 454.489288,238.517883 454.408936,238.821091 
	C456.721130,239.854431 459.038330,240.876678 461.344543,241.923157 
	C468.756165,245.286331 471.794952,251.390945 471.793427,259.166687 
	C471.792358,264.631531 469.387756,269.090240 464.141632,270.952759 
	C454.177979,274.490082 444.292969,274.818085 434.861359,268.106628 
z"/>
<path fill="#FF1A1A" opacity="1.000000" stroke="none" 
	d="
M59.446545,241.473511 
	C62.465015,243.806168 65.861221,245.465210 67.738464,248.176117 
	C75.404373,259.246307 69.489105,271.840210 56.109722,272.857635 
	C50.888737,273.254639 45.385265,272.917664 40.318493,271.667023 
	C32.612747,269.765015 29.695644,264.352417 30.723923,255.613205 
	C36.242348,255.613205 41.832993,255.613205 47.423641,255.613205 
	C47.524086,255.247696 47.624531,254.882187 47.724976,254.516678 
	C45.141323,253.281860 42.532990,252.095810 39.978886,250.802643 
	C33.612251,247.579163 30.048178,242.620071 30.550571,235.229599 
	C31.068808,227.606064 34.738029,222.884186 42.348354,222.110916 
	C48.173016,221.519058 54.340508,221.682983 60.024128,222.971939 
	C67.433647,224.652298 70.176796,229.692581 69.686790,238.004074 
	C64.358620,238.004074 58.990791,238.004074 53.622963,238.004074 
	C53.556694,238.304626 53.490421,238.605194 53.424152,238.905746 
	C55.324749,239.698334 57.225342,240.490921 59.446545,241.473511 
z"/>
<path fill="#FF1A1A" opacity="1.000000" stroke="none" 
	d="
M382.882965,271.849945 
	C376.277557,271.849945 369.672119,271.849945 362.752228,271.849945 
	C362.379089,270.617920 361.978546,269.295380 361.179108,266.655823 
	C359.883698,268.872925 359.135315,270.153748 358.079773,271.960297 
	C352.129395,271.960297 345.541473,271.960297 338.668030,271.535706 
	C338.603668,270.125214 338.824799,269.139343 339.045959,268.153442 
	C342.353363,253.793137 345.604370,239.419174 349.078033,225.099197 
	C349.348297,223.985168 351.148010,222.507950 352.288574,222.461166 
	C358.575348,222.203430 364.878174,222.337997 371.655914,222.337997 
	C375.427917,238.059830 379.163910,253.631683 382.888367,269.900391 
	C382.878815,271.014801 382.880890,271.432373 382.882965,271.849945 
z"/>
<path fill="#090909" opacity="1.000000" stroke="none" 
	d="
M268.335022,302.519745 
	C271.176331,302.162292 273.851166,302.108276 276.983551,302.136841 
	C266.581451,315.708130 255.631653,329.125763 244.916336,342.728149 
	C241.639694,346.887634 238.588196,351.339752 236.179855,356.040222 
	C232.792648,362.651215 234.778152,367.106934 242.172302,367.740295 
	C253.239914,368.688293 264.430939,368.704926 275.551422,368.418182 
	C297.355103,367.856018 319.145691,366.266449 340.943054,366.240906 
	C349.387177,366.231018 357.860840,369.192078 366.264526,371.054871 
	C368.654053,371.584534 371.420074,372.814819 370.151672,376.194244 
	C368.877197,379.589844 366.337677,378.391571 363.906616,377.450470 
	C349.870087,372.016571 335.164337,372.149628 320.513367,372.760437 
	C300.042694,373.613861 279.603333,375.310455 259.128845,375.932190 
	C251.768005,376.155701 244.134521,375.099976 237.003784,373.204712 
	C228.571335,370.963531 225.470703,364.062134 228.725952,355.975616 
	C230.745346,350.959106 233.614227,346.106903 236.931625,341.823669 
	C247.129211,328.657196 257.726593,315.800385 268.335022,302.519745 
z"/>
<path fill="#FE1B1B" opacity="1.000000" stroke="none" 
	d="
M338.574524,268.137817 
	C338.824799,269.139343 338.603668,270.125214 338.228455,271.377991 
	C326.602448,271.643311 315.130432,271.641724 302.998779,271.857666 
	C302.339111,272.075226 301.991425,271.859772 301.994873,271.414246 
	C302.381470,267.605896 302.764618,264.243011 303.472534,260.611511 
	C303.990906,254.234436 304.263611,248.127167 304.356293,242.017166 
	C304.453461,235.611099 304.378021,229.202423 304.378021,222.246750 
	C315.645508,222.246750 326.223297,222.246750 336.895874,222.674591 
	C337.099213,226.036667 337.207764,228.970886 337.316315,231.905121 
	C336.935760,233.814255 337.873474,236.665741 333.358612,236.187363 
	C330.441254,236.139099 328.385864,236.139099 325.294067,236.139099 
	C327.521667,238.302490 322.748718,242.488297 328.673523,242.196960 
	C330.615387,242.411499 332.557251,242.626038 334.714844,242.864410 
	C334.714844,245.918732 334.714844,248.830521 334.714844,252.087814 
	C331.943451,252.237625 329.194824,252.386185 326.221863,252.546890 
	C326.221863,254.421600 326.221863,256.188995 326.221863,258.505310 
	C329.797882,258.505310 333.323761,258.505310 336.956024,258.505310 
	C337.379913,262.059235 337.741486,265.090729 338.574524,268.137817 
z"/>
<path fill="#FE1818" opacity="1.000000" stroke="none" 
	d="
M162.511078,272.168060 
	C159.073166,272.168060 155.635269,272.168060 152.000626,272.168060 
	C152.000626,255.342896 152.000626,239.166885 152.000626,222.272644 
	C161.195267,222.272644 170.254211,222.272644 180.156738,222.232880 
	C184.271606,222.200165 184.457809,224.513535 184.452332,227.377411 
	C184.375885,230.437759 184.375885,233.033783 184.375885,236.108673 
	C180.379333,236.108673 176.977631,236.108673 173.387558,236.108673 
	C173.387558,238.469971 173.387558,240.340332 173.387558,242.453003 
	C176.383896,242.624466 179.089401,242.779282 181.638443,242.925156 
	C181.638443,246.314697 181.638443,249.179611 181.638443,252.037582 
	C178.642456,252.192932 176.042633,252.327728 173.480621,252.460556 
	C173.480621,254.719818 173.480621,256.582001 173.480621,258.854309 
	C177.305283,258.854309 180.733139,258.854309 184.338440,258.854309 
	C184.583847,261.689697 184.794922,264.128479 184.935333,266.961182 
	C184.742844,268.780945 184.621002,270.206787 184.453415,272.168060 
	C176.968323,272.168060 169.739700,272.168060 162.511078,272.168060 
z"/>
<path fill="#FF1C1C" opacity="1.000000" stroke="none" 
	d="
M71.926025,224.348480 
	C72.491325,223.382126 73.035934,222.446060 73.587990,222.441650 
	C84.366257,222.355301 95.145378,222.377502 106.241539,222.377502 
	C106.241539,227.514725 106.241539,232.240433 106.241539,237.293991 
	C104.167953,237.502960 102.248375,237.696411 99.962044,237.926819 
	C99.962044,249.128143 99.962044,260.227478 99.962044,271.666748 
	C92.855484,271.666748 86.117821,271.666748 78.760300,271.666748 
	C78.760300,260.616028 78.760300,249.430405 78.760300,238.011230 
	C76.254112,237.755676 74.328674,237.559341 71.908806,237.312576 
	C71.908806,233.039536 71.908806,228.926025 71.926025,224.348480 
z"/>
<path fill="#090909" opacity="1.000000" stroke="none" 
	d="
M87.036453,302.503632 
	C91.379295,302.181427 95.550034,302.145996 99.973816,302.409424 
	C97.273109,304.545288 94.009171,306.035309 91.454262,308.318665 
	C88.979630,310.530273 87.234161,313.557770 85.168442,316.226929 
	C88.269753,317.853241 91.240494,320.538757 94.492867,320.939697 
	C122.645721,324.410217 148.292267,316.961334 172.117767,302.212860 
	C175.874100,302.162262 179.630417,302.111694 183.862549,302.139282 
	C166.034500,316.738892 144.920624,324.528687 122.060036,327.969635 
	C111.320946,329.586060 100.534210,330.072388 89.894310,327.114044 
	C87.992393,326.585205 86.089073,325.875977 84.364769,324.926208 
	C77.371704,321.074310 76.033554,315.047333 80.891647,308.767212 
	C82.601158,306.557281 84.857620,304.770447 87.036453,302.503632 
z"/>
<path fill="#070707" opacity="1.000000" stroke="none" 
	d="
M373.911865,191.521790 
	C370.878510,191.867279 367.966553,191.899506 364.619995,191.883331 
	C374.270905,181.501282 384.339905,171.151413 394.462646,160.854340 
	C395.734955,159.560135 397.211792,158.424576 398.732208,157.426163 
	C401.303284,155.737885 403.945068,153.092484 407.174805,155.858154 
	C410.287354,158.523544 408.464600,161.685242 407.288300,164.551025 
	C406.283875,166.998093 405.265930,169.552582 403.675232,171.612717 
	C402.231140,173.483002 400.006866,174.750885 398.126526,176.284363 
	C397.086639,174.364899 396.046753,172.445435 395.400085,171.251801 
	C388.705200,177.504852 381.369263,184.356674 373.911865,191.521790 
z"/>
<path fill="#090909" opacity="1.000000" stroke="none" 
	d="
M162.210205,272.434204 
	C169.739700,272.168060 176.968323,272.168060 184.453415,272.168060 
	C184.621002,270.206787 184.742844,268.780945 185.216339,266.973877 
	C185.750580,266.549988 185.933136,266.507294 186.183044,266.848755 
	C186.359299,269.774017 185.918793,272.738953 189.778336,272.417542 
	C178.157425,275.788696 166.817230,278.912628 155.477036,282.036530 
	C147.964157,282.035492 140.451263,282.034485 132.462997,282.045898 
	C141.961517,278.938965 151.935425,275.819641 162.210205,272.434204 
z"/>
<path fill="#0E0909" opacity="1.000000" stroke="none" 
	d="
M337.563293,231.717133 
	C337.207764,228.970886 337.099213,226.036667 337.131958,222.407303 
	C339.962128,218.526306 342.651001,215.340439 345.339844,212.154572 
	C348.170990,212.122879 351.002106,212.091202 354.253540,212.108551 
	C349.052673,218.614777 343.431458,225.071960 337.563293,231.717133 
z"/>
<path fill="#0E0909" opacity="1.000000" stroke="none" 
	d="
M184.528763,226.913055 
	C184.457809,224.513535 184.271606,222.200165 180.634094,222.134979 
	C177.621033,218.970261 174.974197,215.863632 172.207764,212.457489 
	C174.942429,212.116623 177.796661,212.075272 181.217346,212.406799 
	C184.315918,215.871597 186.848022,218.963486 188.980850,222.221161 
	C187.885056,224.650345 187.188553,226.913727 186.339294,228.971817 
	C185.633957,228.148697 185.081360,227.530884 184.528763,226.913055 
z"/>
<path fill="#090909" opacity="1.000000" stroke="none" 
	d="
M301.991425,271.859772 
	C301.991425,271.859772 302.339111,272.075226 302.540314,272.039307 
	C300.180817,275.150177 297.620117,278.296997 294.907166,281.758636 
	C292.056549,282.141602 289.358185,282.209778 286.368622,281.861115 
	C288.602692,278.348602 291.127899,275.252899 294.053955,272.090546 
	C296.966980,271.969208 299.479218,271.914490 301.991425,271.859772 
z"/>
<path fill="#0E0909" opacity="1.000000" stroke="none" 
	d="
M328.872803,241.901947 
	C322.748718,242.488297 327.521667,238.302490 325.294067,236.139099 
	C328.385864,236.139099 330.441254,236.139099 332.956848,236.238266 
	C331.968750,238.093933 330.520416,239.850433 328.872803,241.901947 
z"/>
<path fill="#F98383" opacity="1.000000" stroke="none" 
	d="
M406.657593,230.042175 
	C406.678650,233.440018 406.413177,236.929123 406.147705,240.418243 
	C405.746246,240.393280 405.344788,240.368317 404.943329,240.343353 
	C404.943329,237.144348 404.943329,233.945358 405.074188,230.295761 
	C405.593719,229.941254 405.982422,230.037354 406.657593,230.042175 
z"/>
<path fill="#F98383" opacity="1.000000" stroke="none" 
	d="
M383.243469,271.893188 
	C382.880890,271.432373 382.878815,271.014801 382.946045,270.291748 
	C383.193207,270.044525 383.371124,270.102753 383.818573,270.082245 
	C384.317352,270.491364 384.546600,270.979248 384.908020,271.708740 
	C384.561493,271.945679 384.082733,271.941040 383.243469,271.893188 
z"/>
<path fill="#F1F0F0" opacity="1.000000" stroke="none" 
	d="
M189.380142,222.055389 
	C186.848022,218.963486 184.315918,215.871597 181.633636,212.463867 
	C206.963089,212.097427 232.442719,212.022003 257.922363,212.002731 
	C286.735870,211.980942 315.549438,212.009552 344.851440,212.085419 
	C342.651001,215.340439 339.962128,218.526306 337.037170,221.979462 
	C326.223297,222.246750 315.645508,222.246750 304.378021,222.246750 
	C304.378021,229.202423 304.453461,235.611099 304.356293,242.017166 
	C304.263611,248.127167 303.990906,254.234436 303.408691,260.205322 
	C302.124329,253.850876 296.625458,259.379822 293.793152,255.752243 
	C293.793152,245.332413 293.793152,233.981354 293.793152,222.720596 
	C286.516785,222.720596 279.807495,222.720596 272.562042,222.720596 
	C272.562042,231.546066 272.562042,239.997482 272.198395,248.460251 
	C264.029022,249.929977 256.223328,251.388351 248.345200,252.332397 
	C248.272797,247.227676 248.272797,242.637283 248.272797,237.936890 
	C250.710419,237.707092 252.641159,237.525085 254.773804,237.324036 
	C254.773804,232.367996 254.773804,227.636932 254.773804,223.016190 
	C243.087708,223.016190 231.565735,223.016190 219.829956,223.001984 
	C219.616135,222.987778 219.187576,222.990219 218.844818,222.734863 
	C208.794754,222.338120 199.087448,222.196747 189.380142,222.055389 
z"/>
<path fill="#F1EFEF" opacity="1.000000" stroke="none" 
	d="
M293.653137,272.157196 
	C291.127899,275.252899 288.602692,278.348602 285.920227,281.758820 
	C270.481567,282.172913 255.200272,282.307404 239.918701,282.360687 
	C228.453232,282.400635 216.987366,282.336212 205.200287,281.865387 
	C206.307404,278.331116 207.735916,275.249695 209.613174,272.116730 
	C213.105331,272.065155 216.148743,272.065155 219.096878,272.065155 
	C219.346832,269.489655 219.520691,267.698090 220.030823,265.843445 
	C222.544037,265.301758 224.720963,264.823181 226.960159,264.829895 
	C227.022415,267.404724 227.022415,269.494263 227.022415,271.662842 
	C234.408951,271.662842 241.213333,271.662842 248.418945,271.662842 
	C248.418945,267.554016 248.418945,263.780182 248.796982,259.962036 
	C256.970154,258.419464 264.765320,256.921234 272.645721,255.920273 
	C272.730988,261.491821 272.730988,266.566101 272.730988,272.157196 
	C280.126831,272.157196 286.889984,272.157196 293.653137,272.157196 
z"/>
<path fill="#F0EFEF" opacity="1.000000" stroke="none" 
	d="
M171.643127,302.153931 
	C148.292267,316.961334 122.645721,324.410217 94.492867,320.939697 
	C91.240494,320.538757 88.269753,317.853241 85.168442,316.226929 
	C87.234161,313.557770 88.979630,310.530273 91.454262,308.318665 
	C94.009171,306.035309 97.273109,304.545288 100.408928,302.462799 
	C124.116829,302.176605 147.642670,302.135803 171.643127,302.153931 
z"/>
<path fill="#ECECEC" opacity="1.000000" stroke="none" 
	d="
M155.985703,282.055847 
	C166.817230,278.912628 178.157425,275.788696 190.234543,272.414246 
	C194.603760,272.166290 198.236053,272.168823 201.792419,272.495972 
	C199.709793,275.902191 197.703079,278.983704 195.696350,282.065216 
	C182.629028,282.068542 169.561691,282.071869 155.985703,282.055847 
z"/>
<path fill="#090909" opacity="1.000000" stroke="none" 
	d="
M196.143127,282.173828 
	C197.703079,278.983704 199.709793,275.902191 202.243225,272.417542 
	C204.901443,272.065735 207.032928,272.117004 209.164429,272.168304 
	C207.735916,275.249695 206.307404,278.331116 204.715714,281.744934 
	C201.898315,282.145721 199.244095,282.214081 196.143127,282.173828 
z"/>
<path fill="#FE1919" opacity="1.000000" stroke="none" 
	d="
M294.053955,272.090546 
	C286.889984,272.157196 280.126831,272.157196 272.730988,272.157196 
	C272.730988,266.566101 272.730988,261.491821 272.731140,255.543213 
	C272.674896,252.595551 272.618469,250.522217 272.562042,248.448898 
	C272.562042,239.997482 272.562042,231.546066 272.562042,222.720596 
	C279.807495,222.720596 286.516785,222.720596 293.793152,222.720596 
	C293.793152,233.981354 293.793152,245.332413 293.793152,255.752243 
	C296.625458,259.379822 302.124329,253.850876 303.083923,260.473938 
	C302.764618,264.243011 302.381470,267.605896 301.994873,271.414246 
	C299.479218,271.914490 296.966980,271.969208 294.053955,272.090546 
z"/>
<path fill="#F3DEDE" opacity="1.000000" stroke="none" 
	d="
M184.452332,227.377411 
	C185.081360,227.530884 185.633957,228.148697 186.310715,229.429092 
	C186.328476,242.215973 186.222092,254.340271 186.115692,266.464569 
	C185.933136,266.507294 185.750580,266.549988 185.287018,266.579956 
	C184.794922,264.128479 184.583847,261.689697 184.338440,258.854309 
	C180.733139,258.854309 177.305283,258.854309 173.480621,258.854309 
	C173.480621,256.582001 173.480621,254.719818 173.480621,252.460556 
	C176.042633,252.327728 178.642456,252.192932 181.638443,252.037582 
	C181.638443,249.179611 181.638443,246.314697 181.638443,242.925156 
	C179.089401,242.779282 176.383896,242.624466 173.387558,242.453003 
	C173.387558,240.340332 173.387558,238.469971 173.387558,236.108673 
	C176.977631,236.108673 180.379333,236.108673 184.375885,236.108673 
	C184.375885,233.033783 184.375885,230.437759 184.452332,227.377411 
z"/>
<path fill="#FE1919" opacity="1.000000" stroke="none" 
	d="
M186.183029,266.848755 
	C186.222092,254.340271 186.328476,242.215973 186.463440,229.634399 
	C187.188553,226.913727 187.885056,224.650345 188.980850,222.221161 
	C199.087448,222.196747 208.794754,222.338120 218.804993,223.200317 
	C219.107910,227.859436 219.107910,231.797699 219.107910,236.181107 
	C215.138123,236.181107 211.726151,236.181107 208.308456,236.181107 
	C208.308456,238.543594 208.308456,240.424301 208.308456,242.706329 
	C211.246338,242.706329 213.842896,242.706329 216.669250,242.706329 
	C216.669250,246.037460 216.669250,248.948822 216.669250,252.036133 
	C213.992920,252.177185 211.556992,252.305557 209.240921,252.427628 
	C208.097626,257.524963 210.060730,259.415314 214.901535,258.770447 
	C216.351837,258.577240 217.871048,258.901306 219.338135,259.426208 
	C219.443237,261.878174 219.568909,263.892334 219.694565,265.906525 
	C219.520691,267.698090 219.346832,269.489655 219.096878,272.065155 
	C216.148743,272.065155 213.105331,272.065155 209.613159,272.116730 
	C207.032928,272.117004 204.901443,272.065735 202.319153,272.092896 
	C198.236053,272.168823 194.603760,272.166290 190.515259,272.167053 
	C185.918793,272.738953 186.359299,269.774017 186.183029,266.848755 
z"/>
<path fill="#FF1919" opacity="1.000000" stroke="none" 
	d="
M248.418945,260.006348 
	C248.418945,263.780182 248.418945,267.554016 248.418945,271.662842 
	C241.213333,271.662842 234.408951,271.662842 227.022415,271.662842 
	C227.022415,269.494263 227.022415,267.404724 227.036072,264.443481 
	C227.003006,261.436768 226.956268,259.301758 226.991089,256.693848 
	C227.072662,250.125504 227.072662,244.030060 227.072662,237.919434 
	C224.581833,237.619583 222.646362,237.386581 220.043762,237.073257 
	C220.043762,232.257538 220.043762,227.636871 220.043762,223.016190 
	C231.565735,223.016190 243.087708,223.016190 254.773804,223.016190 
	C254.773804,227.636932 254.773804,232.367996 254.773804,237.324036 
	C252.641159,237.525085 250.710419,237.707092 248.272797,237.936890 
	C248.272797,242.637283 248.272797,247.227676 248.237595,252.706360 
	C248.274567,255.731873 248.346756,257.869110 248.418945,260.006348 
z"/>
<path fill="#F1E8E8" opacity="1.000000" stroke="none" 
	d="
M219.829956,223.001984 
	C220.043762,227.636871 220.043762,232.257538 220.043762,237.073257 
	C222.646362,237.386581 224.581833,237.619583 227.072662,237.919434 
	C227.072662,244.030060 227.072662,250.125504 226.634491,256.749359 
	C223.917114,257.847961 221.637894,258.418152 219.358688,258.988403 
	C217.871048,258.901306 216.351837,258.577240 214.901535,258.770447 
	C210.060730,259.415314 208.097626,257.524963 209.240921,252.427628 
	C211.556992,252.305557 213.992920,252.177185 216.669250,252.036133 
	C216.669250,248.948822 216.669250,246.037460 216.669250,242.706329 
	C213.842896,242.706329 211.246338,242.706329 208.308456,242.706329 
	C208.308456,240.424301 208.308456,238.543594 208.308456,236.181107 
	C211.726151,236.181107 215.138123,236.181107 219.107910,236.181107 
	C219.107910,231.797699 219.107910,227.859436 219.147736,223.455688 
	C219.187576,222.990219 219.616135,222.987778 219.829956,223.001984 
z"/>
<path fill="#0E0909" opacity="1.000000" stroke="none" 
	d="
M248.796982,259.962036 
	C248.346756,257.869110 248.274567,255.731873 248.309998,253.220673 
	C256.223328,251.388351 264.029022,249.929977 272.198395,248.460251 
	C272.618469,250.522217 272.674896,252.595551 272.645874,255.045929 
	C264.765320,256.921234 256.970154,258.419464 248.796982,259.962036 
z"/>
<path fill="#0E0909" opacity="1.000000" stroke="none" 
	d="
M219.338135,259.426178 
	C221.637894,258.418152 223.917114,257.847961 226.552917,257.222260 
	C226.956268,259.301758 227.003006,261.436768 226.973816,263.958191 
	C224.720963,264.823181 222.544037,265.301758 220.030823,265.843445 
	C219.568909,263.892334 219.443237,261.878174 219.338135,259.426178 
z"/>
</svg>